<svg viewBox="0 0 200 200" xmlns="http://www.w3.org/2000/svg">
  <defs>
    <linearGradient id="fav" x1="0" y1="0" x2="1" y2="1">
      <stop offset="0" stop-color="#4aa6ff"/>
      <stop offset=".45" stop-color="#5b8cff"/>
      <stop offset="1" stop-color="#ff6ad5"/>
    </linearGradient>
  </defs>
  <rect width="200" height="200" rx="46" fill="#0a0e27"/>
  <path fill="url(#fav)" d="M 60 56 Q 60 42 74 42 L 132 42 Q 146 42 146 56 L 146 58 Q 146 72 132 72 L 90 72 L 90 85 L 112 85 Q 126 85 126 99 L 126 101 Q 126 115 112 115 L 90 115 L 90 132 L 132 132 Q 146 132 146 146 L 146 148 Q 146 162 132 162 L 74 162 Q 60 162 60 148 Z"/>
</svg>
