<svg viewBox="0 0 200 200" xmlns="http://www.w3.org/2000/svg">
  <defs>
    <linearGradient id="fav" x1="0" y1="0" x2="1" y2="1">
      <stop offset="0" stop-color="#4aa6ff"/>
      <stop offset=".45" stop-color="#5b8cff"/>
      <stop offset="1" stop-color="#ff6ad5"/>
    </linearGradient>
  </defs>
  <rect width="200" height="200" rx="44" fill="#0a0e27"/>
  <g fill="none" stroke="url(#fav)" stroke-width="11" stroke-linecap="round" stroke-linejoin="round">
    <circle cx="100" cy="100" r="50"/>
    <line x1="100" y1="42" x2="100" y2="28" transform="rotate(0 100 100)"/>
    <line x1="100" y1="42" x2="100" y2="28" transform="rotate(45 100 100)"/>
    <line x1="100" y1="42" x2="100" y2="28" transform="rotate(90 100 100)"/>
    <line x1="100" y1="42" x2="100" y2="28" transform="rotate(135 100 100)"/>
    <line x1="100" y1="42" x2="100" y2="28" transform="rotate(180 100 100)"/>
    <line x1="100" y1="42" x2="100" y2="28" transform="rotate(225 100 100)"/>
    <line x1="100" y1="42" x2="100" y2="28" transform="rotate(270 100 100)"/>
    <line x1="100" y1="42" x2="100" y2="28" transform="rotate(315 100 100)"/>
    <path d="M118 79 A28 28 0 1 0 118 121"/>
    <circle cx="100" cy="100" r="11" stroke-width="8"/>
  </g>
</svg>
